<svg width="24" height="24" viewBox="0 0 24 24" fill="none" xmlns="http://www.w3.org/2000/svg">
<path d="M21.3698 14L21.7098 10.43C21.9698 7.99 21.2698 6 16.9998 6H6.99983C2.72983 6 2.02983 7.99 2.29983 10.43L3.04983 18.43C3.25983 20.39 3.97983 22 7.99983 22H15.9998C20.0198 22 20.7398 20.39 20.9498 18.43M7.99983 6V5.2C7.99983 3.43 7.99983 2 11.1998 2H12.7998C15.9998 2 15.9998 3.43 15.9998 5.2V6" stroke="#646464" stroke-width="1.5" stroke-miterlimit="10" stroke-linecap="round" stroke-linejoin="round"/>
<path d="M14 14.02V13C14 12 14 12 13 12H11C10 12 10 12 10 13V14.03C10 15.12 10.02 16 12 16C13.99 16 14 15.11 14 14.02ZM14 14.02C16.7642 13.6759 19.3961 12.6369 21.65 11" stroke="#646464" stroke-width="1.5" stroke-miterlimit="10" stroke-linecap="round" stroke-linejoin="round"/>
<path d="M2.62109 11.2695C4.87109 12.8095 7.41109 13.7395 10.0011 14.0295" stroke="#646464" stroke-width="1.5" stroke-miterlimit="10" stroke-linecap="round" stroke-linejoin="round"/>
</svg>
