<svg width="34" height="37" viewBox="0 0 34 37" fill="none" xmlns="http://www.w3.org/2000/svg">
<path d="M27.4394 16.111L29.8882 13.6086C32.4832 10.9652 33.6528 7.95174 29.6141 4.26861C25.5754 0.603107 22.5235 1.88956 19.9284 4.53295L4.92483 19.847C4.35831 20.4285 3.81007 21.574 3.70042 22.367L3.02425 28.0768C2.78668 30.1386 4.32176 31.5484 6.44164 31.196L12.3261 30.2267C13.1485 30.0857 14.2998 29.5042 14.8663 28.905L22.0849 21.5388" stroke="#0061C7" stroke-width="3" stroke-miterlimit="10" stroke-linecap="round" stroke-linejoin="round"/>
<path d="M16.4463 6C16.7869 8.31386 17.8415 10.4421 19.4444 12.0506C21.0473 13.6591 23.1078 14.6568 25.3025 14.8872M2 35.25H19.875M26.375 35.25H31.25" stroke="#0061C7" stroke-width="3" stroke-miterlimit="10" stroke-linecap="round" stroke-linejoin="round"/>
</svg>
