<svg width="142" height="142" viewBox="0 0 142 142" fill="none" xmlns="http://www.w3.org/2000/svg">
<path d="M28.0342 75.4923V85.687C28.0342 110.674 38.029 120.669 63.016 120.669H93.0005C117.988 120.669 127.982 110.674 127.982 85.687V55.7025C127.982 30.7155 117.988 20.7207 93.0005 20.7207H63.016C38.029 20.7207 28.0342 30.7155 28.0342 55.7025" stroke="#0061C7" stroke-width="2" stroke-linecap="round" stroke-linejoin="round"/>
<path d="M95.4992 59.483C97.4873 59.483 99.3939 58.6932 100.8 57.2872C102.206 55.8813 102.995 53.9744 102.995 51.9861C102.995 49.9978 102.206 48.091 100.8 46.685C99.3939 45.2791 97.4873 44.4893 95.4992 44.4893C93.5111 44.4893 91.6044 45.2791 90.1986 46.685C88.7928 48.091 88.0031 49.9978 88.0031 51.9861C88.0031 53.9744 88.7928 55.8813 90.1986 57.2872C91.6044 58.6932 93.5111 59.483 95.4992 59.483ZM60.5173 59.483C62.5054 59.483 64.4121 58.6932 65.8179 57.2872C67.2237 55.8813 68.0135 53.9744 68.0135 51.9861C68.0135 49.9978 67.2237 48.091 65.8179 46.685C64.4121 45.2791 62.5054 44.4893 60.5173 44.4893C58.5293 44.4893 56.6226 45.2791 55.2168 46.685C53.811 48.091 53.0212 49.9978 53.0212 51.9861C53.0212 53.9744 53.811 55.8813 55.2168 57.2872C56.6226 58.6932 58.5293 59.483 60.5173 59.483ZM60.0176 77.2256H95.9989C98.4976 77.2256 100.497 79.2248 100.497 81.7237C100.497 94.1685 90.4518 104.214 78.0083 104.214C65.5647 104.214 55.5199 94.1685 55.5199 81.7237C55.5199 79.2248 57.5189 77.2256 60.0176 77.2256Z" stroke="#0061C7" stroke-width="2" stroke-miterlimit="10" stroke-linecap="round" stroke-linejoin="round"/>
</svg>
