<svg width="29" height="29" viewBox="0 0 29 29" fill="none" xmlns="http://www.w3.org/2000/svg">
<path d="M22.475 2.54004C23.8042 2.54004 24.8917 3.62754 24.8917 4.95671V7.61504C24.8917 8.58171 24.2875 9.79004 23.6833 10.3942L18.4875 14.9859C17.7625 15.59 17.2792 16.7984 17.2792 17.765V22.9609C17.2792 23.6859 16.7958 24.6525 16.1917 25.015L14.5 26.1025C12.9292 27.0692 10.7542 25.9817 10.7542 24.0484V17.6442C10.7542 16.7984 10.2708 15.7109 9.7875 15.1067L5.19584 10.2734C4.59167 9.6692 4.10834 8.5817 4.10834 7.8567V5.07754C4.10834 3.62754 5.19584 2.54004 6.525 2.54004H17.4M13.2071 2.54004L7.25 12.0859" stroke="black" stroke-width="1.5" stroke-miterlimit="10" stroke-linecap="round" stroke-linejoin="round"/>
</svg>
