<svg width="30" height="31" viewBox="0 0 30 31" fill="none" xmlns="http://www.w3.org/2000/svg">
<g filter="url(#filter0_d_112_61)">
<path d="M21.4698 16.83L21.8598 19.99C21.9598 20.82 21.0698 21.4 20.3598 20.97L16.1698 18.48C15.7098 18.48 15.2598 18.45 14.8198 18.39C15.5778 17.5113 15.9964 16.3904 15.9998 15.23C15.9998 12.39 13.5398 10.09 10.4998 10.09C9.33984 10.09 8.26984 10.42 7.37984 11C7.34984 10.75 7.33984 10.5 7.33984 10.24C7.33984 5.69 11.2898 2 16.1698 2C21.0498 2 24.9998 5.69 24.9998 10.24C24.9998 12.94 23.6098 15.33 21.4698 16.83Z" stroke="#0061C7" stroke-width="1.5" stroke-linecap="round" stroke-linejoin="round"/>
<path d="M16 15.2298C16 16.4198 15.56 17.5198 14.82 18.3898C13.83 19.5898 12.26 20.3598 10.5 20.3598L7.89 21.9098C7.45 22.1798 6.89 21.8098 6.95 21.2998L7.2 19.3298C5.86 18.3998 5 16.9098 5 15.2298C5 13.4698 5.94 11.9198 7.38 10.9998C8.27 10.4198 9.34 10.0898 10.5 10.0898C13.54 10.0898 16 12.3898 16 15.2298Z" stroke="#0061C7" stroke-width="1.5" stroke-linecap="round" stroke-linejoin="round"/>
</g>
<defs>
<filter id="filter0_d_112_61" x="-1" y="0" width="32" height="32" filterUnits="userSpaceOnUse" color-interpolation-filters="sRGB">
<feFlood flood-opacity="0" result="BackgroundImageFix"/>
<feColorMatrix in="SourceAlpha" type="matrix" values="0 0 0 0 0 0 0 0 0 0 0 0 0 0 0 0 0 0 127 0" result="hardAlpha"/>
<feOffset dy="4"/>
<feGaussianBlur stdDeviation="2"/>
<feComposite in2="hardAlpha" operator="out"/>
<feColorMatrix type="matrix" values="0 0 0 0 0 0 0 0 0 0 0 0 0 0 0 0 0 0 0.25 0"/>
<feBlend mode="normal" in2="BackgroundImageFix" result="effect1_dropShadow_112_61"/>
<feBlend mode="normal" in="SourceGraphic" in2="effect1_dropShadow_112_61" result="shape"/>
</filter>
</defs>
</svg>
