<svg width="44" height="44" viewBox="0 0 44 44" fill="none" xmlns="http://www.w3.org/2000/svg">
<path d="M14.6665 18.3703V21.0837C14.6665 25.1353 17.9482 28.417 21.9998 28.417C26.0515 28.417 29.3332 25.1353 29.3332 21.0837V11.0003C29.3332 6.94866 26.0515 3.66699 21.9998 3.66699C17.9482 3.66699 14.6665 6.94866 14.6665 11.0003" stroke="#0061C7" stroke-width="3.5" stroke-linecap="round" stroke-linejoin="round"/>
<path d="M7.97852 17.6875V20.8042C7.97852 28.5409 14.2668 34.8292 22.0035 34.8292C29.7402 34.8292 36.0285 28.5409 36.0285 20.8042V17.6875M19.4515 11.7897C21.1015 11.1847 22.8982 11.1847 24.5482 11.7897M20.5332 15.6745C21.5048 15.4179 22.5132 15.4179 23.4848 15.6745M21.9998 34.8329V40.3329" stroke="#0061C7" stroke-width="3.5" stroke-linecap="round" stroke-linejoin="round"/>
</svg>
