<svg width="142" height="143" viewBox="0 0 142 143" fill="none" xmlns="http://www.w3.org/2000/svg">
<path d="M47.5707 60.0047V68.7237C47.5707 81.7434 58.116 92.2887 71.1357 92.2887C84.1553 92.2887 94.7007 81.7434 94.7007 68.7237V36.3218C94.7007 23.3022 84.1553 12.7568 71.1357 12.7568C58.116 12.7568 47.5707 23.3022 47.5707 36.3218" stroke="#0061C7" stroke-width="2" stroke-linecap="round" stroke-linejoin="round"/>
<path d="M26.0794 57.8136V67.8287C26.0794 92.6897 46.2864 112.897 71.1475 112.897C96.0085 112.897 116.216 92.6897 116.216 67.8287V57.8136M62.9468 38.8614C68.249 36.9173 74.0224 36.9173 79.3245 38.8614M66.4227 51.345C69.545 50.5202 72.7852 50.5202 75.9076 51.345M71.1357 112.909V130.582" stroke="#0061C7" stroke-width="2" stroke-linecap="round" stroke-linejoin="round"/>
</svg>
