<svg width="7" height="11" viewBox="0 0 7 11" fill="none" xmlns="http://www.w3.org/2000/svg">
<path fill-rule="evenodd" clip-rule="evenodd" d="M3.52978 2.75295e-05C4.11333 0.00340357 4.68295 0.178957 5.16673 0.505588C5.65052 0.831376 6.02678 1.2939 6.24808 1.83406C6.4693 2.37423 6.52567 2.96756 6.40996 3.5398C6.29425 4.11204 6.01176 4.63617 5.59802 5.04805C5.18429 5.45992 4.65789 5.73929 4.08531 5.85239C3.51265 5.96549 2.91956 5.90555 2.38066 5.68189C1.84176 5.45739 1.38127 5.07927 1.05734 4.59396C0.733411 4.10781 0.560558 3.53727 0.560558 2.95406C0.561233 2.56497 0.638544 2.1801 0.788186 1.82055C0.937829 1.46185 1.15685 1.13607 1.43258 0.86092C1.70841 0.586617 2.03554 0.369704 2.39543 0.222002C2.75523 0.0743007 3.14078 -0.00166049 3.52978 2.75295e-05ZM3.53653 1.6509C3.78974 1.65344 4.03652 1.73109 4.24583 1.87288C4.45515 2.01552 4.61763 2.21724 4.71275 2.45187C4.80795 2.68651 4.83149 2.94393 4.78043 3.19207C4.72945 3.44021 4.60623 3.66725 4.4262 3.84533C4.24618 4.02342 4.01753 4.14496 3.76897 4.19307C3.52041 4.24117 3.26316 4.21501 3.02945 4.11711C2.79575 4.02005 2.59622 3.85545 2.45586 3.64445C2.31559 3.43345 2.24081 3.18617 2.24098 2.93296C2.24233 2.59114 2.37923 2.26451 2.62171 2.02312C2.8642 1.78258 3.19234 1.64837 3.534 1.64922L3.53653 1.6509ZM3.52978 6.76561C4.09577 6.76139 4.65695 6.65926 5.18825 6.46429C5.48442 6.2727 5.80017 6.11319 6.13017 5.98827C6.31585 5.99502 6.62223 6.30309 6.5699 7.09983C6.54036 7.55475 5.71061 7.74212 5.41859 7.91599C5.22793 8.0198 5.02106 8.08986 4.80677 8.12446C4.80677 8.12446 5.52164 8.88913 5.70394 9.07735C6.07413 9.34743 6.35333 9.72301 6.50407 10.156C6.45588 10.3611 6.35138 10.5493 6.20225 10.6978C6.05311 10.8472 5.86532 10.9519 5.66006 11C5.20666 10.7671 4.80482 10.4463 4.47845 10.0547C3.98639 9.58543 3.53729 9.15246 3.53729 9.15246C3.53729 9.15246 3.07654 9.56265 2.5963 10.037C2.27752 10.4294 1.88531 10.7569 1.4417 11C1.21348 10.9409 1.00729 10.8177 0.848194 10.6438C0.689098 10.47 0.583848 10.253 0.545361 10.0209C0.82802 9.55168 1.18133 9.12799 1.59278 8.76591C1.80302 8.53802 2.02862 8.32449 2.26798 8.12699C2.07952 8.10082 1.89713 8.04175 1.72951 7.95144C1.32354 7.72609 0.454214 7.48977 0.477002 7.07114C0.500634 6.63901 0.611197 5.97393 0.996909 5.97393C1.32641 6.09377 1.64283 6.24738 1.94135 6.43137C2.43949 6.65925 2.9821 6.77236 3.52978 6.76392V6.76561Z" fill="white"/>
</svg>
