<svg width="142" height="142" viewBox="0 0 142 142" fill="none" xmlns="http://www.w3.org/2000/svg">
<path d="M99.9627 85.0694C108.034 86.4244 116.93 85.0105 123.174 80.8277C131.481 75.2899 131.481 66.2174 123.174 60.6796C116.871 56.4968 107.857 55.0829 99.786 56.4968M41.2446 85.0694C33.1736 86.4244 24.2778 85.0105 18.0331 80.8277C9.72645 75.2899 9.72645 66.2174 18.0331 60.6796C24.3368 56.4968 33.3504 55.0829 41.4214 56.4968M87.8326 104.746C78.4656 98.5014 62.9716 98.5014 53.5456 104.746C45.2389 110.284 45.2389 119.356 53.5456 124.894C62.9716 131.198 78.4066 131.198 87.8326 124.894M106.031 42.1811C105.66 42.1221 105.282 42.1221 104.911 42.1811C100.98 42.0389 97.2574 40.3737 94.531 37.5374C91.8046 34.701 90.2878 30.9158 90.3011 26.9817C90.3011 18.5572 97.076 11.7822 105.501 11.7822C109.532 11.7822 113.398 13.3836 116.248 16.234C119.099 19.0845 120.7 22.9505 120.7 26.9817C120.689 30.9186 119.156 34.6989 116.422 37.5318C113.688 40.3646 109.965 42.0305 106.031 42.1811ZM35.1708 42.1811C35.5242 42.1222 35.9366 42.1222 36.2901 42.1811C40.2217 42.0389 43.9441 40.3737 46.6704 37.5374C49.3968 34.701 50.9137 30.9158 50.9004 26.9817C50.9004 18.5572 44.1255 11.7822 35.701 11.7822C31.6698 11.7822 27.8038 13.3836 24.9534 16.234C22.1029 19.0845 20.5015 22.9505 20.5015 26.9817C20.5605 35.2294 27.0408 41.8865 35.1708 42.1811ZM70.6832 86.1828C70.3124 86.1239 69.9347 86.1239 69.5639 86.1828C65.6322 86.0406 61.9099 84.3754 59.1835 81.5391C56.4571 78.7028 54.9403 74.9176 54.9536 70.9834C54.9536 62.5589 61.7285 55.784 70.153 55.784C74.1841 55.784 78.0502 57.3853 80.9006 60.2358C83.7511 63.0862 85.3524 66.9523 85.3524 70.9834C85.2935 79.2311 78.8131 85.9472 70.6832 86.1828Z" stroke="#0061C7" stroke-width="2" stroke-linecap="round" stroke-linejoin="round"/>
</svg>
