<svg width="24" height="24" viewBox="0 0 24 24" fill="none" xmlns="http://www.w3.org/2000/svg">
<path d="M16.4102 3.99975C18.3502 3.99975 19.9102 5.56975 19.9102 7.49975C19.9102 9.38975 18.4102 10.9297 16.5402 10.9997C16.4538 10.9897 16.3666 10.9897 16.2802 10.9997M18.3402 19.9997C19.0602 19.8497 19.7402 19.5597 20.3002 19.1297C21.8602 17.9597 21.8602 16.0297 20.3002 14.8597C19.7502 14.4397 19.0802 14.1597 18.3702 13.9997M9.16021 10.8697C9.06021 10.8597 8.94021 10.8597 8.83021 10.8697C7.68242 10.8308 6.59486 10.3466 5.79784 9.51971C5.00083 8.69283 4.55696 7.5882 4.56021 6.43975C4.56021 3.98975 6.54022 1.99975 9.00022 1.99975C10.1765 1.97853 11.3129 2.42544 12.1597 3.24216C13.0064 4.05888 13.494 5.17851 13.5152 6.35475C13.5364 7.53098 13.0895 8.66747 12.2728 9.5142C11.4561 10.3609 10.3364 10.8485 9.16021 10.8697ZM4.16021 14.5597C1.74021 16.1797 1.74021 18.8197 4.16021 20.4297C6.91021 22.2697 11.4202 22.2697 14.1702 20.4297C16.5902 18.8097 16.5902 16.1697 14.1702 14.5597C11.4302 12.7297 6.92021 12.7297 4.16021 14.5597Z" stroke="#0061C7" stroke-width="1.5" stroke-linecap="round" stroke-linejoin="round"/>
</svg>
