<svg width="14" height="11" viewBox="0 0 14 11" fill="none" xmlns="http://www.w3.org/2000/svg">
<path d="M11.7484 2.7C11.9257 2.7 12.1013 2.66508 12.2651 2.59724C12.4289 2.52939 12.5777 2.42995 12.703 2.30459C12.8284 2.17923 12.9278 2.03041 12.9957 1.86662C13.0635 1.70283 13.0984 1.52728 13.0984 1.35C13.0984 1.17272 13.0635 0.997167 12.9957 0.833377C12.9278 0.669588 12.8284 0.520765 12.703 0.395406C12.5777 0.270047 12.4289 0.170607 12.2651 0.102763C12.1013 0.0349189 11.9257 -3.73599e-09 11.7484 0C11.3904 7.54518e-09 11.047 0.142232 10.7938 0.395406C10.5407 0.64858 10.3984 0.991957 10.3984 1.35C10.3984 1.70804 10.5407 2.05142 10.7938 2.30459C11.047 2.55777 11.3904 2.7 11.7484 2.7V2.7Z" fill="white"/>
<path fill-rule="evenodd" clip-rule="evenodd" d="M1.99929 10.7857H0.199219V2.95996H7.03949C7.5032 2.95996 7.94792 3.16056 8.27582 3.51762C8.60372 3.87468 8.78793 4.35897 8.78793 4.86393V6.43133C8.78807 6.88017 8.63355 7.31274 8.35491 7.6435C8.07628 7.97425 7.69383 8.17913 7.28317 8.21761L9.01922 10.8H7.01333L5.41632 8.22361H1.9986V10.7857H1.99929ZM1.98621 4.68178V6.50179H6.5122C6.573 6.50179 6.63321 6.48874 6.68938 6.46338C6.74555 6.43801 6.79657 6.40084 6.83954 6.35399C6.8825 6.30713 6.91656 6.25151 6.93977 6.19031C6.96297 6.12911 6.97487 6.06353 6.97478 5.99731V5.1855C6.97478 5.05191 6.92604 4.92378 6.83929 4.82932C6.75254 4.73485 6.63488 4.68178 6.5122 4.68178H1.98621V4.68178Z" fill="white"/>
</svg>
