<svg width="11" height="9" viewBox="0 0 11 9" fill="none" xmlns="http://www.w3.org/2000/svg">
<path fill-rule="evenodd" clip-rule="evenodd" d="M9.12506 8.20935C9.11251 8.34819 9.05807 8.48005 8.96947 8.58819C8.88156 8.69563 8.76297 8.77447 8.62902 8.81424C8.49507 8.854 8.35274 8.8526 8.22018 8.81074C8.08693 8.76888 7.96972 8.68795 7.8832 8.57841C7.12274 7.97353 5.93669 7.10284 5.93669 7.10284C5.93669 7.10284 5.07854 8.6147 4.92505 8.76959C4.87412 8.81215 4.81553 8.84424 4.75204 8.86238C4.68785 8.88121 4.62157 8.8861 4.55599 8.87773C4.48971 8.86866 4.42692 8.84633 4.37041 8.81145C4.3139 8.77726 4.26505 8.7312 4.22738 8.67678C4.2197 8.65306 4.20995 8.62935 4.19948 8.60703L4.68086 6.19864L8.11343 2.82679L3.43204 5.49817C3.43204 5.49817 1.31808 4.8661 1.00412 4.74261C0.923193 4.69866 0.856216 4.63236 0.811565 4.55143C0.766914 4.4705 0.745282 4.37911 0.750863 4.28702C0.755747 4.19492 0.787157 4.10632 0.84018 4.03097C0.893901 3.95562 0.96785 3.89701 1.05297 3.86213C1.49948 3.63469 9.37622 0.626318 9.64134 0.548876C9.90645 0.471434 10.6041 0.269805 10.5274 0.948642C10.4506 1.62748 9.20181 7.83679 9.12506 8.20935Z" fill="white"/>
</svg>
