<svg width="13" height="8" viewBox="0 0 13 8" fill="none" xmlns="http://www.w3.org/2000/svg">
<path fill-rule="evenodd" clip-rule="evenodd" d="M7.75194 1.11086V3.64052C7.74922 3.68246 7.75644 3.72441 7.77307 3.76247C7.78969 3.8013 7.81516 3.83469 7.84755 3.86188C7.87986 3.88829 7.918 3.90693 7.95893 3.91547C7.99986 3.92479 8.04227 3.92402 8.08281 3.91315C8.31581 3.89684 8.84241 1.73842 9.07619 1.26775C9.20023 1.00212 9.3996 0.77921 9.64938 0.626202C9.72806 0.554747 9.82849 0.512037 9.93443 0.505047H12.1697C12.2301 0.515144 12.2869 0.540775 12.3346 0.578833C12.3825 0.61689 12.4197 0.66659 12.443 0.723288C12.4663 0.779986 12.4749 0.841353 12.4679 0.901935C12.4608 0.962516 12.4384 1.02076 12.4027 1.07047C12.228 1.45881 10.729 3.8743 10.6513 3.97217C10.5578 4.09877 10.4948 4.24479 10.4672 4.39935C10.4978 4.58187 10.5822 4.75196 10.7096 4.88633C10.8649 5.06186 12.12 6.44358 12.2373 6.56009C12.3478 6.68668 12.4218 6.84202 12.4509 7.00746C12.4229 7.14882 12.3444 7.27542 12.23 7.36241C12.1157 7.45017 11.9733 7.49367 11.8295 7.48357C11.3433 7.48357 10.1472 7.48357 10.0105 7.48357C9.73731 7.38804 9.48597 7.23891 9.27114 7.04474C9.09638 6.88941 8.44863 6.14999 8.35154 6.05291C8.31869 6.0133 8.27667 5.98223 8.22921 5.96282C8.18168 5.9434 8.13011 5.93564 8.07893 5.9403C7.96242 5.9403 7.74107 5.95194 7.75116 6.39465C7.77889 6.70144 7.71458 7.00902 7.56631 7.2793C7.49051 7.35231 7.40064 7.40823 7.30216 7.44551C7.20375 7.48201 7.09882 7.49832 6.99389 7.49289C6.19942 7.54104 5.40938 7.34376 4.73063 6.92823C3.50813 6.16941 2.11631 4.14149 1.46855 2.84753C1.08215 2.20521 0.843394 1.48444 0.769531 0.738825C0.808366 0.602129 0.808365 0.505817 0.945062 0.505817C1.08176 0.505817 2.80057 0.505817 2.96445 0.505817C3.07808 0.561738 3.17283 0.649507 3.23706 0.75902C3.29531 0.836689 3.73958 2.16637 3.8755 2.40015C4.01142 2.63393 4.6817 3.9147 5.04519 3.9147C5.16589 3.89062 5.27229 3.82072 5.34126 3.71897C5.41023 3.61723 5.43609 3.49217 5.41334 3.37101C5.41334 3.06033 5.41334 1.83395 5.41334 1.67784C5.26553 1.33377 4.99478 1.05649 4.65374 0.901152C4.73863 0.788533 4.84698 0.695332 4.97125 0.628537C5.09552 0.560965 5.23284 0.52213 5.37373 0.512809C5.83974 0.493392 7.00865 0.493394 7.26107 0.531451C7.39653 0.557859 7.51901 0.629309 7.60825 0.734938C7.69742 0.840567 7.74813 0.972611 7.75194 1.11086Z" fill="white"/>
</svg>
